/* XPM */
static char *a6b4244dd97e405fbfb481001487f8aavikqGYnA6ZJEd2rL[] = {
/* columns rows colors chars-per-pixel */
"64 64 195 2 ",
"   c #3C353F",
".  c #2D394A",
"X  c #3D3741",
"o  c #363947",
"O  c #3E3843",
"+  c #3E3D4B",
"@  c #2D3D50",
"#  c #323F52",
"$  c #413B45",
"%  c #443E4A",
"&  c #483D48",
"*  c #563E47",
"=  c #693F43",
"-  c #2B4158",
";  c #354255",
":  c #394152",
">  c #36465B",
",  c #2D4A65",
"<  c #394D65",
"1  c #33516E",
"2  c #3F546D",
"3  c #3D5571",
"4  c #365878",
"5  c #3C5C7D",
"6  c #46414D",
"7  c #49424E",
"8  c #4D484F",
"9  c #54424C",
"0  c #5A434C",
"q  c #444454",
"w  c #4C4552",
"e  c #4E4955",
"r  c #424758",
"t  c #45495B",
"y  c #4D4C5A",
"u  c #524653",
"i  c #5B4753",
"p  c #514B56",
"a  c #534C5A",
"s  c #4F515E",
"d  c #565156",
"f  c #55515C",
"g  c #5A555C",
"h  c #5E5A5E",
"j  c #654046",
"k  c #694248",
"l  c #6D444A",
"z  c #7C4244",
"x  c #75454A",
"c  c #7E4649",
"v  c #634952",
"b  c #794B52",
"n  c #795258",
"m  c #424D63",
"M  c #425169",
"N  c #4A5368",
"B  c #535664",
"V  c #5C5664",
"C  c #5C5A65",
"Z  c #55586A",
"A  c #575C6A",
"S  c #5C5C6A",
"D  c #415772",
"F  c #435973",
"G  c #4C5B70",
"H  c #415D7C",
"J  c #605361",
"K  c #625D63",
"L  c #625D6C",
"P  c #5E606E",
"I  c #47617E",
"U  c #5C6575",
"Y  c #5C697C",
"T  c #656264",
"R  c #696565",
"E  c #65616B",
"W  c #6A6669",
"Q  c #6D696B",
"!  c #716E6D",
"~  c #74726D",
"^  c #636573",
"/  c #626875",
"(  c #656C7B",
")  c #6A6D7B",
"_  c #7F6570",
"`  c #726C72",
"'  c #6D707D",
"]  c #767273",
"[  c #7E7D75",
"{  c #7C7879",
"}  c #864545",
"|  c #8E4747",
" . c #8E4B4D",
".. c #924A4A",
"X. c #834E51",
"o. c #8B5154",
"O. c #9F5354",
"+. c #A04F4E",
"@. c #A75252",
"#. c #895C64",
"$. c #806C78",
"%. c #807F79",
"&. c #A5656A",
"*. c #83827B",
"=. c #89877F",
"-. c #3B5F81",
";. c #3D6285",
":. c #3D668B",
">. c #3F6990",
",. c #416182",
"<. c #40668A",
"1. c #446B8D",
"2. c #4C6A89",
"3. c #426C93",
"4. c #496E90",
"5. c #4C7497",
"6. c #527595",
"7. c #517698",
"8. c #567B9D",
"9. c #587B9B",
"0. c #666F81",
"q. c #667181",
"w. c #6E7384",
"e. c #667588",
"r. c #737786",
"t. c #737B8B",
"y. c #7A7F8E",
"u. c #6B7E94",
"i. c #747F90",
"p. c #5A7FA0",
"a. c #817A8C",
"s. c #987883",
"d. c #6E8299",
"f. c #768395",
"g. c #7A8393",
"h. c #72859A",
"j. c #7D8A9C",
"k. c #6285A4",
"l. c #6688A7",
"z. c #6889A7",
"x. c #6789A8",
"c. c #6C8CAA",
"v. c #7088A3",
"b. c #7A8DA2",
"n. c #708FAC",
"m. c #6F90AD",
"M. c #7C91A6",
"N. c #7392AE",
"B. c #7A92AA",
"V. c #7695B0",
"C. c #7997B2",
"Z. c #7D9AB4",
"A. c #828D9E",
"S. c #888B9C",
"D. c #828FA0",
"F. c #8392A4",
"G. c #8896A7",
"H. c #8496AA",
"J. c #8997AA",
"K. c #8499AE",
"L. c #8D9BAD",
"P. c #909BAB",
"I. c #809DB6",
"U. c #819DB6",
"Y. c #8B9DB1",
"T. c #839FB8",
"R. c #849FB8",
"E. c #8DA1B5",
"W. c #85A0B9",
"Q. c #88A3BA",
"!. c #8AA4BB",
"~. c #8BA5BC",
"^. c #8EA7BD",
"/. c #8FA8BE",
"(. c #96A5B5",
"). c #9BA7B6",
"_. c #93A6B9",
"`. c #90A9BF",
"'. c #91A9BF",
"]. c #99ABBD",
"[. c #AEACB7",
"{. c #93ABC0",
"}. c #94ACC1",
"|. c #98AFC3",
" X c #98AFC4",
".X c #9AB1C5",
"XX c #9CB2C6",
"oX c #9FB4C8",
"OX c #A2B5C5",
"+X c #A1B6C9",
"@X c #A5B9CB",
"#X c #AABDCE",
"$X c #ADC0CF",
"%X c #AFC1D1",
"&X c #B1C3D2",
/* pixels */
"k.k.k.k.k.k.k.k.k.k.k.k.k.k.k.k.k.k.k.k.l.x.z.z.z.z.z.c.c.c.c.c.c.c.c.c.c.c.c.z.z.z.z.z.x.l.l.l.k.k.k.k.k.k.k.k.k.k.k.k.k.k.k.k.",
"k.k.k.k.k.k.k.k.k.k.k.k.k.k.k.k.k.l.l.x.z.z.z.c.c.c.c.c.c.c.c.c.c.c.c.c.c.c.c.c.c.c.c.c.z.z.z.z.l.k.k.k.k.k.k.k.k.k.k.k.k.k.k.k.",
"k.k.k.k.k.k.k.k.k.k.k.k.k.k.k.l.l.z.z.z.c.c.c.c.c.c.c.N.N.N.N.N.N.N.N.N.N.N.N.c.c.c.c.c.c.c.z.z.z.x.l.k.k.k.k.k.k.k.k.k.k.k.k.k.",
"k.k.k.k.k.k.k.k.k.k.k.k.k.k.l.z.z.z.c.c.c.c.n.N.N.N.N.N.N.N.N.N.N.N.N.N.N.N.N.N.N.N.N.n.c.c.c.c.z.z.z.x.l.k.k.k.k.k.k.k.k.k.k.k.",
"k.k.k.k.k.k.k.k.k.k.k.k.l.x.z.z.c.c.c.c.n.N.N.N.N.N.N.N.V.V.V.V.V.V.V.V.V.V.V.V.N.N.N.N.N.N.c.c.c.c.c.z.z.l.l.k.k.k.k.k.k.k.k.k.",
"k.k.k.k.k.k.k.k.k.k.k.l.z.z.c.c.c.c.N.N.N.N.N.V.V.V.V.V.C.C.C.C.C.C.C.C.C.C.C.C.V.V.N.N.N.N.N.N.n.c.c.c.c.z.l.l.k.k.k.k.k.k.k.k.",
"k.k.k.k.k.k.k.k.k.l.z.z.z.c.c.c.N.N.N.N.N.V.V.C.C.C.C.Z.Z.Z.Z.Z.Z.Z.Z.Z.Z.Z.Z.Z.C.C.C.V.V.V.N.N.N.N.N.c.c.c.z.z.x.k.k.k.k.k.k.k.",
"k.k.k.k.k.k.k.k.l.z.z.c.c.c.m.N.N.N.N.V.V.C.C.C.Z.Z.Z.Z.Z.Z.Z.Z.Z.Z.Z.Z.Z.Z.Z.Z.Z.Z.Z.C.C.V.V.V.N.N.N.N.c.c.c.z.z.l.k.k.k.k.k.k.",
"k.k.k.k.k.k.l.l.z.z.c.c.c.N.N.N.N.V.V.C.C.Z.Z.Z.Z.Z.Z.Z.I.I.I.I.I.I.I.I.I.I.I.Z.Z.Z.Z.Z.Z.Z.C.C.V.V.N.N.N.c.c.c.c.z.l.k.k.k.k.k.",
"k.k.k.k.k.k.l.z.z.c.c.m.N.N.N.V.V.C.C.Z.Z.Z.Z.Z.I.I.I.I.I.I.T.R.R.T.R.R.I.T.I.I.I.I.I.Z.Z.Z.Z.Z.C.C.V.N.N.N.N.c.c.c.z.x.l.k.k.k.",
"k.k.k.k.k.l.z.z.c.c.c.N.N.N.V.C.C.Z.Z.Z.Z.I.I.I.I.T.R.W.W.W.W.W.W.W.W.W.W.W.W.W.R.I.I.I.I.Z.Z.Z.Z.C.C.V.N.N.N.N.c.c.c.z.z.k.k.k.",
"k.k.k.k.l.z.z.c.c.c.N.N.N.V.C.C.Z.Z.Z.Z.I.I.I.W.W.W.W.W.W.Q.Q.Q.Q.Q.Q.Q.Q.Q.W.W.W.W.R.T.I.I.I.Z.Z.Z.Z.C.V.V.N.N.N.c.c.c.z.z.k.k.",
"k.k.k.l.z.z.c.c.c.N.N.V.V.C.Z.Z.Z.Z.I.I.I.R.W.W.W.Q.Q.Q.~.~.~.^.~.~.~.~.~.~.!.Q.Q.Q.W.W.W.R.I.I.Z.Z.Z.Z.C.C.V.N.N.N.c.c.c.z.l.k.",
"k.k.k.z.z.c.c.c.N.N.V.C.C.Z.Z.Z.I.I.I.R.W.W.Q.Q.!.!.^.^.^.^.^.^.^.^./.^.^.^.^.^.~.~.~.!.Q.W.R.R.I.I.Z.Z.Z.C.C.V.N.N.N.c.c.z.z.l.",
"k.k.l.z.c.c.c.N.N.V.V.C.Z.Z.Z.I.I.T.W.W.W.Q.~.~.^.^.^././.`.`.`.{.`.`.`.`./././.^.^.C.c.N.V.V.N.C.Z.I.Z.Z.Z.C.C.V.N.N.N.c.c.z.z.",
"k.l.z.z.c.c.N.N.V.V.C.Z.Z.Z.I.I.R.W.W.Q.!.~.^.^./.`.`.{.{.{.{.{.{.{.{.{.{.{.{.{.`.B.1.>.3.8.p.8.z.k.N.C.Z.Z.Z.Z.C.V.N.N.n.c.c.z.",
"l.z.z.c.c.N.N.N.V.C.Z.Z.Z.I.I.W.W.Q.Q.~.^.^./.`.{.{.}.}.}.}.}.}.}.}.}.}.}.}.}.}.j.N m D -.:.<.>.5.1.7.l.n.Z.Z.Z.C.C.V.N.N.c.c.c.",
"l.z.c.c.n.N.N.V.C.Z.Z.Z.I.I.R.W.Q.Q.~.^.^.`.{.{.}.}.}.}.}.}. X X X.X X X X|..XE.V % % % q m m 3 5 5 5 4.8.z.N.Z.Z.C.V.V.N.N.c.c.",
"z.z.c.c.N.N.V.C.C.Z.Z.I.I.R.W.Q.!.^.^./.`.{.}.}.}.}. X X.X.X.X.X.X.X.X.X.X.XH.P % $ O O O $ $ $ 6 y y < ;.1.1.v.H.Z.Z.V.N.N.n.c.",
"z.c.c.N.V.V.V.C.Z.Z.I.I.R.W.Q.!.~.^./.`.{.}.}.}.|..X.XXXXXXXXXXXXXXXoXoXoXF.a $ O O O $ % q q 6 w L ` a < 4 Z #.&.s.S.B.V.N.N.c.",
"z.c.c.c.u.d.N.Z.Z.Z.I.T.W.Q.Q.~.^./.`.{.}.}.|..X.X.XXXXX+X+X+X+X+X+X+X+XG.a $ O O O % q 2 5 <.F e L V a O 0  .@.@.+.O.&.s.B.N.N.",
"c.c.N.n.Y w U B.Z.I.I.W.W.Q.~.^.`.`.{.}.}.|..X.XXXoXoX+X+X+X+X+X@X+X+X@X) $ O O O $ 6 > < 1 -.;.F y y + : 0 z } X._ $.#.o.a.V.N.",
"c.c.N.N.N.Y % A h.T.W.W.Q.~.^./.`.{.}.}..X.XXXXXoX+X+X+X@X@X@X@X@X@X@X@X) O O O O % 6 ; 1 5 ;.:.<.,.1 > ; q w.y.F.I.Z.B.b.B.N.N.",
"c.N.N.N.C.N.B X y u.I.Q.!.^./.`.{.}.}. X.XXXXX+X+X+X@X@X@X@X#X#X#X#X#X#X) O O O O % # ; , , 1 4 < > : + w f.~.Q.W.I.Z.Z.Z.C.V.N.",
"c.N.N.V.C.Z.e.% X 6 0.W.^.^.`.{.}.}. X.XXXoX+X+X@X@X@X#X#X#X#X#X#X#X#X`.G % $ O O O o . @ - ; ; + $ X B M.^.~.W.W.I.I.Z.Z.C.V.V.",
"N.N.N.V.C.Z.Z.e.w O % 0.I.{.`.{.}. X.XXXoX+X+X@X@X@X#X#X#X#X$X%X%X#X.Xm.2.t 6 % $ O O O o o O $ $ O 6 j.{.^.~.Q.W.W.I.I.Z.Z.C.V.",
"N.N.V.C.C.Z.Z.I.M.U $ $ B j.`.}.}..XXXoX+X+X@X@X#X#X#X#X%X%X%X+X{.Z.c.c.l.2.F M t r q % + O O $ 7 w i.}.{./.^.~.Q.W.I.I.Z.Z.C.V.",
"N.N.V.C.Z.Z.I.I.W.W.q.$ O w t.}..X.XXXoX+X@X@X#X#X#X%X%X&X#XY.6.5.4.6.9.6.7.7.6.2.1.6.F M 7 w p a ^ _.}.{.`.^.~.Q.W.R.I.Z.Z.C.V.",
"N.N.V.C.Z.Z.I.T.W.Q.Q.q.$ X 6 t.Y.XXoX+X+X@X@X#X#X#X&X&X[.s.J 3 H 3 ,.D H m F I m D G u 0 9 w w 7 g..X}.}.{./.^.!.W.W.I.Z.Z.Z.C.",
"N.N.V.C.Z.Z.I.R.W.Q.^.!.f.y O $ a g.].@X@X@X#X#X#X&X@XS.n | c u q t i u t 0 9 7 j l = * 7 7 % % 6 F..X}.}.{.`.^.!.Q.W.I.I.Z.Z.C.",
"N.N.V.Z.Z.Z.I.W.W.!.^./.{.Y.( O O 6 ^ L.@X#X#X#X#X).' % $ 0 v c c c b l c  .b x | | l w 7 % $ X y _..X|.}.{.`.^.~.Q.W.T.I.Z.Z.C.",
"N.V.C.Z.Z.I.I.W.W.!.^./.{.}._.^ $ O $ a y.+X#X%XP.a $ O $ % * z k k l .... .v  .z j u a w $ O X a (..X X}.{.`./.^.Q.W.R.I.Z.Z.C.",
"N.V.C.Z.Z.I.I.W.Q.~.^.`.{.}._.) h w % $ 6 ^ (.OXE O $ 6 w w % $ % 7 j } x i 0 l 9 7 w p 7 $ O O ( XXXX.X}.}.`./.^.Q.W.R.I.Z.Z.Z.",
"N.V.C.Z.Z.I.T.W.Q.~.^.`.{.}.Y.C p f a w % $ f S $ $ 7 a w % O O O O & * 7 % % w w w w e w % $ % g.+XXX.X}.}.{./.^.!.W.R.I.I.Z.Z.",
"N.V.C.Z.Z.I.T.W.Q.~.^.`.{.}.|.j.C Q f a p 7 % O $ 7 a a % $ O O O O O O $ 6 p a p h h e w w 7 e L.+XXX.X}.}.{./.^.~.W.W.I.I.Z.Z.",
"N.V.C.Z.Z.I.R.W.Q.~.^.`.{.}.}.t.V T p p a a 7 $ % w e % % $ O O O O O O 7 a a p T [ ~ Q f w a S _.+XXX.X}.}.{./.^.~.Q.W.I.I.Z.Z.",
"N.V.C.Z.Z.I.I.W.Q.~.^.`.{.}..XJ.V e e w 7 w w 7 w w 7 % $ O $ O O O % w a a w g Q Q h %.` a 6 t.+XoXXX.X}.}.{.`.^.~.Q.W.I.I.Z.Z.",
"N.V.C.Z.Z.I.T.W.Q.~.^.`.{.}..XJ.V h e 7 % % 6 w a 7 $ $ % $ O O $ 7 a a p p p w w w h ! E a 6 L.@XoXXX.X}.}.{./.^.~.Q.W.I.I.Z.Z.",
"N.V.C.Z.Z.I.I.W.Q.~.^.`.{.}..XY.) u d w 6 % 7 a 7 $ $ % % O O % w a w e T ~ K K h p w w w 7 S OX+XoXXX.X}.}.{./.^.!.W.W.I.Z.Z.Z.",
"N.V.C.Z.Z.I.I.W.Q.~.^.`.{.}..XA.e h W d e 6 w w % % 6 $ O O 6 a a w w e a f R =.~ T p w 7 $ P +X+XoXXX.X}.}.{./.^.!.W.R.I.Z.Z.C.",
"N.V.C.Z.Z.I.I.W.Q.!.^./.{.}..XA.a a T R w w w 6 % 6 % O % w a p p h h p 7 u [ *.! W Q V w % ) +X+XoX.X X}.}.{.^.^.!.W.R.I.Z.Z.C.",
"N.N.V.Z.Z.I.I.W.W.!.^./.{.}.}.`.j.w.L e w a w 7 % O O % e p w w R [ ] g e w g K T *.*.E 7 S ].+X+XXX.X X}.{.`.^.~.Q.W.T.I.Z.Z.C.",
"N.N.V.C.Z.Z.I.R.W.!.^.^.`.{.}..XXXXXA.L a p 7 $ O $ w p p p w p ~ Q K ! g a e w h R h w 7 A.@X+XoXXX.X}.}.{./.^.~.Q.W.I.I.Z.Z.C.",
"N.N.V.C.Z.Z.I.T.W.Q.~.^.`.{.}.}..XXXoX(.L 7 $ $ % w e p K V w w p w K =.Q ` W w w 7 % % ) +X+X+XXXXX.X}.}.{./.^.!.W.W.I.I.Z.Z.C.",
"N.N.V.C.Z.Z.I.I.W.W.~.^./.{.}.}. X.XXXj.e $ % w a w e T ] f p f a w g T K { T p 7 % 6 ^ (.@X+XoXXX.X|.}.{.`.^.~.Q.W.R.I.Z.Z.C.V.",
"N.N.V.C.Z.Z.Z.I.W.W.Q.^.^.`.{.}.}..XL.a O 6 6 7 7 w R { [ f K ] f h h e g d p w ^ g.y..X@X+XoXXX.X X}.}.`./.^.!.Q.W.I.I.Z.Z.C.V.",
"N.N.N.V.Z.Z.Z.I.I.W.Q.~.^./.{.}.|.E.C $ f A.t.C 8 8 R *.Q V { Q 6 d g 8 6 y ( r.OX#X@X@X+X+XXX.X.X}.}.{.`.^.^.Q.W.W.I.I.Z.Z.C.V.",
"c.N.N.V.C.Z.Z.I.I.R.W.!.~.^.`.{.}.w.$ f J.+X+X|.L.) 7 a p ! ~ 8 $ $ % % C P.OX+X@X@X@X+X+XoXXX.X X}.}.{./.^.~.Q.W.T.I.Z.Z.C.V.N.",
"c.N.N.N.C.C.Z.Z.I.R.W.Q.~.^./.{.Y.B A F.XXXXoX+X@XXXw.% p ! d f ( 7 6 7 D.#X@X@X@X@X+X+XXXXX.X X}.}.{.`.^.^.Q.W.W.I.I.Z.Z.C.V.N.",
"c.c.N.N.V.C.Z.Z.Z.I.W.W.Q.^.^./.!.H._. X.X.XXXoX+X+X.XA $ w 6 A.+XP % y ].@X@X+X+X+XoXXXXX.X|.}.}.{.`./.^.!.Q.W.R.I.Z.Z.Z.C.N.N.",
"c.c.N.N.V.C.C.Z.Z.I.I.W.Q.!.^.^.`.{.}.}.|..X.XXXXXoX+Xj.$ O 6 L.].a % e ].@X+X+XoXoXXX.X.X|.}.}.{.`./.^.~.Q.W.W.I.I.Z.Z.C.V.N.N.",
"z.c.c.N.N.V.C.Z.Z.Z.I.R.W.Q.!.^.^.`.{.{.}.}. X.X.XXXoXD.$ X C XX(.8 O y _.+XoXXXXXXX.X.X X}.}.{.{./.^.^.Q.W.W.I.I.Z.Z.C.C.V.N.N.",
"z.c.c.N.N.N.V.C.Z.Z.I.I.R.W.Q.!.^.^.`.{.{.}.}.|. X.XoXA.$ X ( oX`.f   e _.oXXX.X.X.X|.}.}.}.{.{./.^.^.Q.W.W.I.I.Z.Z.Z.C.V.N.N.n.",
"z.z.c.c.N.N.V.C.C.Z.Z.I.I.W.W.Q.!.^.^./.`.{.}.}.}.|..Xj.O 7 J.XXXX(   P }..X.X.X X}.}.}.}.{.`./.^.~.Q.Q.W.R.I.Z.Z.Z.C.V.N.N.N.c.",
"l.z.c.c.N.N.N.V.C.Z.Z.Z.I.I.W.W.Q.~.^.^./.`.{.{.}.}.|.F.% A }..X.XF.6 / }. X}.}.}.}.}.{.`.`.^.^.~.!.W.W.R.I.I.Z.Z.C.C.V.N.N.c.c.",
"l.z.z.c.c.N.N.N.V.C.Z.Z.Z.I.T.W.W.Q.!.^.^.^./.`.{.{.}.!.y w. X}.}.}.^ w E.}.}.}.{.{.`.`./.^.^.~.Q.W.W.R.I.I.Z.Z.Z.C.V.N.N.n.c.c.",
"k.l.z.z.c.c.N.N.V.V.C.Z.Z.Z.I.T.W.W.W.Q.~.^.^.^./.`.{.E.Z H.}.}.}.}.F.y b.}.{.`.`.`././.^.~.!.Q.W.W.R.I.I.Z.Z.Z.C.V.N.N.N.c.c.z.",
"k.k.x.z.c.c.n.N.N.V.V.C.Z.Z.Z.I.I.W.W.W.Q.Q.~.^.^.^./.E.A K.{.`.`.{.!.B ( `.`./.^.^.^.~.!.Q.W.W.W.I.I.I.Z.Z.Z.C.V.N.N.N.c.c.c.z.",
"k.k.l.z.z.c.c.N.N.N.V.V.C.Z.Z.Z.I.I.I.W.W.W.Q.~.~.~.^.R.A K././././.`.q.s Q.^.^.^.~.!.Q.Q.W.W.W.I.I.I.Z.Z.Z.C.V.N.N.N.c.c.c.z.l.",
"k.k.k.l.z.z.c.c.N.N.N.V.V.C.Z.Z.Z.Z.I.I.R.W.W.W.Q.Q.~.Y.A K.^.^.^.^.^.b.y M.^.!.Q.Q.W.W.W.R.I.I.I.Z.Z.Z.Z.C.V.N.N.N.c.c.c.z.l.k.",
"k.k.k.k.l.z.z.c.c.N.N.N.V.V.C.Z.Z.Z.Z.I.I.I.R.W.W.W.W.I.B b.~.!.Q.!.!.R.P U Q.Q.W.W.W.R.T.I.I.I.Z.Z.Z.C.C.V.N.N.N.c.c.c.z.z.k.k.",
"k.k.k.k.k.x.z.c.c.c.N.N.N.V.V.C.C.Z.Z.Z.Z.I.I.I.I.R.W.I.y y h.W.W.W.W.Q.M.s b.W.R.T.I.I.I.Z.Z.Z.Z.Z.C.C.V.N.N.N.c.c.c.z.x.l.k.k.",
"k.k.k.k.k.k.l.z.z.c.c.N.N.N.N.V.C.C.Z.Z.Z.Z.Z.I.I.I.I.I.U % y B.W.W.W.R.I.B U I.I.I.I.Z.Z.Z.Z.Z.Z.C.V.V.N.N.N.c.c.c.z.z.l.k.k.k.",
"k.k.k.k.k.k.k.l.z.z.c.c.c.N.N.N.N.V.V.C.Z.Z.Z.Z.Z.Z.I.I.Z.h.B d.T.I.I.I.I.( 6 A d.Z.Z.Z.Z.Z.C.C.V.V.N.N.N.N.c.c.c.z.z.l.k.k.k.k."
};
