/* XPM */
static char *ddf7bcff0b7d48308e4d2ff3f7e6bc6cm2L5Ogt4J0X8nSFb[] = {
/* columns rows colors chars-per-pixel */
"64 64 216 2 ",
"   c #16022F",
".  c #170431",
"X  c #180633",
"o  c #190833",
"O  c #1C073A",
"+  c #1D0B3D",
"@  c #1F123E",
"#  c #200A3F",
"$  c #22113F",
"%  c #1F0F40",
"&  c #210D42",
"*  c #270F4A",
"=  c #211443",
"-  c #231B44",
";  c #24154A",
":  c #28144E",
">  c #261D4B",
",  c #281E4B",
"<  c #290F52",
"1  c #291154",
"2  c #2A1C54",
"3  c #2D175A",
"4  c #30155D",
"5  c #33195F",
"6  c #27244F",
"7  c #29224F",
"8  c #2B2552",
"9  c #2B2B52",
"0  c #2E2459",
"q  c #2C295A",
"w  c #312C5D",
"e  c #2F3156",
"r  c #33355D",
"t  c #331A62",
"y  c #371E6B",
"u  c #391E6B",
"i  c #342465",
"p  c #332B62",
"a  c #37246B",
"s  c #39246D",
"d  c #3A2A6E",
"f  c #343762",
"g  c #3E2674",
"h  c #3C2C73",
"j  c #3A3272",
"k  c #3E367B",
"l  c #442776",
"z  c #452B7D",
"x  c #43347D",
"c  c #49327D",
"v  c #413B7E",
"b  c #384169",
"n  c #3D4571",
"m  c #404A6F",
"M  c #4B2E84",
"N  c #463381",
"B  c #4C3285",
"V  c #443C85",
"C  c #4C3A86",
"Z  c #4D3389",
"A  c #463E89",
"S  c #4E3D8C",
"D  c #51368D",
"F  c #513B8D",
"G  c #523D91",
"H  c #464284",
"J  c #46438B",
"K  c #4B448C",
"L  c #4A4A8E",
"P  c #52428F",
"I  c #4D5489",
"U  c #4C4492",
"Y  c #4C4C94",
"T  c #4E4D9A",
"R  c #524493",
"E  c #534C96",
"W  c #534499",
"Q  c #524C9B",
"!  c #594D9B",
"~  c #4F5494",
"^  c #4F539A",
"/  c #575596",
"(  c #52539D",
")  c #535A9D",
"_  c #6F599D",
"`  c #4C688A",
"'  c #51738F",
"]  c #59639F",
"[  c #537693",
"{  c #547996",
"}  c #557C9A",
"|  c #587E9B",
" . c #544EA0",
".. c #5353A3",
"X. c #5950A7",
"o. c #555BA5",
"O. c #5A5BA5",
"+. c #5656A9",
"@. c #5C55AC",
"#. c #575DA9",
"$. c #5A5AAB",
"%. c #5E5DB3",
"&. c #605EA4",
"*. c #6156AB",
"=. c #615CAD",
"-. c #725AA1",
";. c #615EB5",
":. c #615FB8",
">. c #5662A6",
",. c #5962A4",
"<. c #5B6CA6",
"1. c #5763A9",
"2. c #5A64AC",
"3. c #5B6AAE",
"4. c #5C72A4",
"5. c #597BA6",
"6. c #5D73AD",
"7. c #5F64B3",
"8. c #5C6DB0",
"9. c #5E75B1",
"0. c #636FAF",
"q. c #607AA6",
"w. c #6172AC",
"e. c #617AAB",
"r. c #6162B5",
"t. c #6966B7",
"y. c #636BB5",
"u. c #6363BA",
"i. c #6B65B9",
"p. c #656BBB",
"a. c #6A6BBC",
"s. c #7565B1",
"d. c #7B66B2",
"f. c #7B6AB4",
"g. c #7469BA",
"h. c #7D6DB9",
"j. c #6474B2",
"k. c #657BB4",
"l. c #6C7DB7",
"z. c #6672BD",
"x. c #6874BC",
"c. c #677BBB",
"v. c #6A7CBD",
"b. c #6A7DBF",
"n. c #7B73BA",
"m. c #747ABB",
"M. c #6877C0",
"N. c #6A7DC1",
"B. c #826CB7",
"V. c #826DB9",
"C. c #876FB9",
"Z. c #886FB9",
"A. c #8373BA",
"S. c #8870BA",
"D. c #5B849F",
"F. c #65899B",
"G. c #5C86A2",
"H. c #5C89A3",
"J. c #5D83AC",
"K. c #5E8DAB",
"L. c #608EA7",
"P. c #608CAA",
"I. c #6897AC",
"U. c #6483B4",
"Y. c #6787B7",
"T. c #6B83BE",
"R. c #648BBA",
"E. c #6C8ABE",
"W. c #7284BF",
"Q. c #6496B5",
"!. c #699FB4",
"~. c #6693BC",
"^. c #6994BD",
"/. c #659BB8",
"(. c #6A99BF",
"). c #6BA1B9",
"_. c #73A2B3",
"`. c #7CB4BD",
"'. c #6D84C0",
"]. c #668DC0",
"[. c #6E8AC0",
"{. c #7086C4",
"}. c #718DC2",
"|. c #6797C0",
" X c #6D93C2",
".X c #6C9CC3",
"XX c #7194C4",
"oX c #729AC6",
"OX c #729DCA",
"+X c #6DA3C5",
"@X c #6EAAC7",
"#X c #6EA6C8",
"$X c #6EACC8",
"%X c #71A3C5",
"&X c #73A2CA",
"*X c #73ACCB",
"=X c #7DA9CB",
"-X c #6FB0CA",
";X c #77B4C6",
":X c #72B3CC",
">X c #75B9CE",
",X c #76ACD1",
"<X c #76B3D1",
"1X c #79B5D1",
"2X c #76BBD1",
"3X c #78BED3",
"4X c #7BC2D6",
"5X c #83B5CE",
"6X c #83B3D2",
"7X c #86BBD4",
"8X c #89BDD6",
"9X c #86C3D6",
"0X c #88C6D6",
"qX c #89CBD2",
"wX c #8ACAD9",
"eX c #88D1DA",
/* pixels */
". . . . . . . . . . . . . . . . . . . . . . . . . . . . . . . . . . . . . . . . . . . . . . . + > T Q ; X . . . . . . . . . . . ",
". . . . . . . . . . . . . . . . . . . . . . . . . . . . . . . . . . . . . . . . . . . . . . ; L w.t.d.K + . . . . . . . . . . . ",
". . . . . . . . . . . . . . . . . . . . . . . . . . . . . . . . . . . . . . . . . . . . . ; Y c.T.A.V.Q + . . . . . . X $ = X . ",
". . . . . . . . . . . . . . . . . . . . . . . . . . . . . . . . . . . . . . . . . . . . ; Y c.T.a.V.f.K + . . . . . . $ _ _ $ . ",
". . . . . . . . . . . . . . . . . . . . . . . . . . . . . . . . . . . . . . . . . . . ; Y v.a.a.V.B.! ; . . . . . . . & -.-.$ . ",
"+ X . . . . . . . . . . . . . . . . . . . . . . . . . . . . . . . . . . . . . . . . ; Y v.A.V.V.C.B.E +   . . . . . . O t t O . ",
"K ; X . . . . . X = X . . . . . . . . . . . . X + . . . . . . . X + X . . . . . . ; Y c.a.V.Z.C.C.f.K + . . . . . . . X 4 4 O . ",
"f.Y ; + + . . . = [ 9 . . . . . . . . . X + X ; v ; + + + + + + ; j + . . . . . ; Y c.T.a.V.C.C.B.! ; . . . . . . . . + l l + . ",
"A.l.( T K ; + . X 9 { 9 X . . . X + X   + k 2 J T Y Y Y Y Y Y T L 2 + X . . . ; Y c.T.p.h.C.B.C.B.E + . . . . . . . . + z z + . ",
"C.A.m.T.c.( J ; + X 9 [ = X + . + j ; + ; Y Q @.G ;.u.u.u.u.u.v.c.^ J ; + + ; Y c.'.r.%.$.f.=.B.B./ ; . . . . . . . . + U U + . ",
"C.C.A.W.W.T.c.) L ; % 7 - + j ; % 2 J T T @.%.u.u.v.T.p.'.v.p.v.p.u.%.T Y Y ( c.T.r.W ..+.r.2.f.A.f.K + . . . . . . . + T T + . ",
"C.C.A.A.A.W.W.T.c.( Y ^ J.9 2 J Y T %.u.;.G F r.].v..X'.T.z.v.p.p.v.p.u.u.u.y.v.=.G y.u.r.3.R.2.}.A.E + . . . . . . . & +.+.& . ",
"C.C.V.V.V.A.n.T.T.v.o...3.^.] +.;.u.p.v.u.@.+.y.c..X[.p.p.T.'.p.v.c.v.p.v.'.'.p.G F c.x..X~.1.o.n.B.E + . . . . . . . = $.$.= . ",
"C.V.i.r.=.s.O.o.O.s...>.k.E..Xy.p.'.T.p.;...7..X.X[.y.u.v.E.T.p.r.R ..u.p.T.[.&Xr.y..X Xz.2.%...O.s.K + . . . . . . . = j.j.= . ",
"V.g.n.7.y.2...( Q D R ~.1.1.2.p.T.[.T.u. .F E .X Xc.2.u.p.T.2.%.%.Q S y.u.u.p.'.x.[.z.p.u.;.+.....Q ; . . . . . . . . = k.k.= . ",
"C.A.=X*X*X.X3.o.E O.%.#.o..X[.'.[.T.p.%.G Y.(.[.v.2.~.p.N.T.o...+.o.( S ..%.u.x. Xz.u.p.v.u.%...o.^ > . . . . . . . . - Q.Q.- . ",
"C.V.p.1.o.E oX*X9X7Xv...+.v.OXz.v.y.%. .G z.[.T.y.2.|.p.p.[.c.o.7. X^.S Q ..#. Xz.u.T.v.r...Q R J.K.{ 6 X . . . . . . - /./.- . ",
"h.;.+.Q B B p.M.[.'.6Xj.y.N.N.p.r... .o.U. Xy.O.p.|.3.u.p..XT.o.%.z..X) Q Q o.R.y.p.oXp...Z R ] w > 9 ` $ . . . . . . - @X@X- . ",
"*.W %. .M F z.u.r.+.3.=X'.N.6X[...Z R c..X[.;.G c..Xp.u.p.+XE.2.+.p..XR M B W R r.XX9XM.y./ e.F z N ; = + X . . . . . - ;X;X- . ",
"D X.%...G @.u.r.+.1.,.! y.N.v.x.Z Z R.[.T.y. .D k.3.c.u.p..X X^.2.T.+Xk.Z B B Q p.8XoX'.8X5X/ Z W S V : 5 + . . . . . - qXqX-   ",
"M M F j.v.p.u.r.3.&X6Xv.}.[.c...M P .X[.p.;.G F j.T.T.2.u.z.[.+Xy.c. X^.E &.Z ..p.XXXX7X{.}.c.r.r...Q l & X . . . . . - `.`.- . ",
"K Z U R c.T.c.2. X3.y.7XwXE.o.B Z ~.@X[.p.p.v.0.R v.[.T.y.v.[..X#.o.T.[.k.E P c.[..X XXX[.[.'.'.v.7. .z + . . . . . . X - - o . ",
"; K Z D r.y.2.o.#.....! l.p.%.Z C .X@X[.'.'.v.( Z r.[..X1.T.[..X1.+.y.v.x.(.+X+X+X X^.~.Q.R.3.k.y.$.( z & . . . . . . . . . . . ",
"+ V Z @.u.u.v.v.u.%.O.@.! x.p.=.R ~.@X XT.'.y.F F c.+XE.2.v.[.+XT.u.u.z.'.<X*X XY.U.j i > > 2 x @.y.( M u O . . . . . . . . . . ",
". ; Y u.v.p.'.[.T.p.T.[.T.[.[.'.7.) .X+Xc.'.v.r.v.[.+X[.T.x..X X'.a.'..X X X[.w.h i + O < t k : c D Q z & + X . . . . . . . . . ",
". + T u.p.p.[.+X X[..X(.~.~.~.~.~.^.@X$X+XN.z.p.T.[.+X X+X[.+X[.p.T.+XoX*X[.w.i O O X . O 4 5 2 U Z B A 2 j + . . . . . . . . . ",
". + K x.p.|.+X$X+X X7.C a i i i h 2.~.@X3X3X,XM.z.E.+X X+X X+X[.p.[.*X:XXX6.d 7 , : X . O < 2 ( r. .B B V ; . . . . . . . . . . ",
". X 2 %.r.8.T.^.2.S Z t O X X X + t h ,./.:X4X<X#X X@X+X X[.+X[.p.#X<X X4.0 > `.`.> . X < 2 ..p.v.r.Q Z U ; X . . . . . . . . . ",
"X ; U r.3.R.o.N y g W 5 X . .   . O 1 : 0 K %X>X2X$X$X$X+X X+X[.x.*X.X4.p K w ).!.- X O d 6.z.N.z.v.r.G Y v + . . . . . . . . . ",
"+ J r.T.R.o.M y y U a + . . X - - O 1 t Q g H oX:X2X:X$X@X[.[..X[.+XU.0 5 X.Q 0 > & i j e.+X.Xc.v.z.v.;.M = X . . . . . . . . . ",
"; T p.v.o.Z B E N 3 1 O . . - `.`.- & d ,.H 2 L +X:X2X:X@X[.x.[.[.E.w.i s S P C c K R.+X@X@X X.Xx.v.p.r.z O . . . . . . . . . . ",
"T r.v.o.B B ..c.j.c * 1 + . - ).).> 3 ~ w 2 J U / :X>X2X#X[.'..X Xk.x a 5.(.+X*X+X*X:X3X:X$X+X Xv.p.p.y.l O . . . . . . . . . . ",
"+.u.u.Q B ( v.[.[.k.C a 3 # & a d 4 ; w ] T U h J.1X3X#Xx.v.z.[..X[.w.s x U.*X:X2X:X2X:X2X:X$X.Xx.v.y.^ ; . . . . . . . . . . . ",
"T %.%.Z M @.y.v.[.+X.Xk.S c c N N K e.U.T.o.g a v ).@X[.u.u.x.p.'.'.v.P Q 1.6..XoX:X&X:X&X>X@Xc.v.p.x.T + . . . . . . . . . . . ",
"; N Q M M  .+.o.y.].+X+X~.T.T.~.E.*X1X@X Xc.O.3.o..XoX'.p.+.o.u.p.p.p.v.T..X.X X[.XX*XoX*X.X+XT.p.u.7.J + . . . . . . . . . . . ",
"O g U B Z ..%.+.$.v.T.2.z..X X X#X3X4X:X@X X.X8.y.[.*X[.v.#.+.y.v.p.p.y.[. X+X+X+X X[.[.[.p.'.v.[.[.) ; . . . . . . . . . . . . ",
". & N  .%.+.%.%.r.u.p.;.2.+X@X+X.X$X:X3X3X$X$X.XT.E.[.x.'.T.y.v.p.p.x.2. X+X X X+X+X[.[.'.z.z.&X1X9XP.9 = X . . . . . . . . . . ",
"  + A %.p.y.+.o.+.;.u.u.y.+X$X$X@X$X-X3X3X-X$X+Xx.'.[.T.[.'.p.u.p.v.p.x.3..X@X+X.X X[.[.XX&Xp.p.y.~ r I.| 9 - - X . . . . . . . ",
"- - > ,..X&X3.k.O...+.u.p.].+X$X$X$X$X-X-X$X$X+Xz.'.[.[.'.z.v.a.v.a.u.r.+.1.+X$X@X+X XXX<XoXz.y.T ; X - 9 G.Q.D.- = X . . . . . ",
"I.G.f _.[.N.&XXXT.1.1.v.[.[. X@X$X$X$X$X-X$X$X@XE.'.[.[.W.v.a.h.a.h.u.+.%.1.+X$X-X$X@X<X<X<X*XOX( 7 - = X - > - - ' = . . . . . ",
"- 9 { f O.v.N.*X<X+X.X X+X@X@X$X$X$X-X3X3X:X$X@X[.p.T.W.A.A.V.i.t.m.v.#.#.T.@X:X3X3X@XN.x.p.y.#.o.J.G.{ 9 = . . X = X . . . . . ",
". X = X ; ..v.[. X+X$X@X@X@X$X@X@X$X:X3X>X2X:X@XT.2.n.W.A.C.A.V.V.A.n.x.$.E.$X3X4X4X:X+X.Xx.y.2.1.) q 9 P.} 9 . . . . . . . . . ",
". . . . . ; ..p.T.[.+X+X X X+X X X*X3X4X3X:X3X<XN.v.W.n.C.C.C.C.C.h.;.7.3.+X:X4X4X4X3X:X1X<X*X7X^.>.J 2 H r F.- = X . . . . . . ",
". . . - - - p k.N.[. XXX[. X+X XXX1X4X4X4X4X4X4X<Xz.%.;.h.Z.C.A.V.*.N >..X:X3X4X4X4X:X2X:X*X XE.9.~.o.Y 2 = - - ' = . . . . . . ",
"X - 9 { H.L.K.>X%X*XoX*X X+X$X@X$X4X4X4X4X4X4X4X3Xy.z z *.V.Z.S.d.x ) +X3X4X4X4X4X4X3X:X-X2X.X9.~.|.3.R.) J ; + = X . . . . . . ",
"9 G.G.9 - r b L.n y.,XXX[.*X2X:X:X4X4X4X4X4X4X4X4X+Xy.O.N d.S.A.f.,..X3X4X4X4X4X4X4X:X2X-X$X X.X3.1.R.6.R.o.Y J ; . . . . . . . ",
"D.9 - - 9 I.| b <.p.[.[.[.:X:X3X4X4X4X4X4X4X4X4X4X4X1X+Xy.a.h.h.x..X:X4X4X4X4X4X3X:X2X:X$X>X[.9.R.1.1.R.3.o.2...Y > . X + . . . ",
"- X 6 { { 9 8 <.[.'.p.[.[. X$X:X4X3X:X:X4X4X4X4X4X4X4X2X@X.Xa.a.+X3X4X4X4X4X4X3X:X2X:X<X.X[..X X6.R.1.2.R.6.=X9.~.J.8 ; j + . . ",
"X 9 { 9 = . = k.[.'.N..X+X@X2X3X4X:X3X4X4X4X4X4X4X4X4X:X$X+X[.[.1X4X4X4X4X4X4X:X2X:X:X X X8.y.z.].9.~.1.1.R.6.R.2.1.J.L 2 X . . ",
"9 [ 9 . . . 7 U.&XoX7XN. X@X.X$X3X4X4X4X4X4X4X4X4X:X3X$X+X X.XE. X*X3X4X4X4X3X:X-X@X[.2.p.].p.u.z. X+X.X1.#...7.#.%.$...K ; X . ",
"{ 6 .   X 9 q.*XwX*XXXE..X@X@X@X*X:X3X:X3X4X4X4X4X2X:X+X.X.XT.2.c.E.+X>X4X4X:X+X.XE.c.#.u.z.[.z.p.y.8..X.X1.o.+.%.u.:.u.%.U ; X ",
"= X X - 9 _.wX:X*X X X.Xc. X+X X X<X:X2X:X3X:X3X*X.X+X]..XY.$.+.O.#.#.3..X+X.X3.2.o.#.r.u.u.z. X X2.%.3.+X|.~.1.+.;.u.u.u.%.K ; ",
"  . 9 G.H.m R.@X.X+X+X X[..X X.X[.@X$X:X2X:X2X*X X.XY.2.#.$.r.t.g.r.u.r.2.1.3.c.k.O.r.u.u.u.u.y.z.R.2.7. X9.1.R.1.$.7.u.u.u.%.Q ",
"- 9 { 9 8 4.+X:X@X X X+X+XE.c..Xv..X+X+X#X@X+XE.~.1.2.r.u.n.A.n.a.p.T.[..XE.T.c.2.r.v.p.u.:.;.$.u.z.R.2.z.5X2.1.~.~.2.%.u.u.u.:.",
"I.G.9 X 7 Y.:XeX:X X.X X[.[..X X.Xx.z.z.z.'.[.3.1.1. X[.[.%X}.}.[.'.[.+X.X+XT.2.y.v.p.u.u.+.+.%.u.u.u.%.2..Xo...o.1.R.2.u.u.u.u.",
"> - . @ q.0X:X:X:X@X X[.[.[. X+X XT.'.T.T.x..X+X+X+X$X@X@X$X@X@X+X X.X X.XT.3.c.N.z.v.p.u.+.%.+.+.%.+.+.7.~.1...+.%.2.R.p.u.u.u.",
". X - e /.:X$X:XeX1X}.[.[. X.X X[.[.[.[.[.T.c.+X+X#X+X$X$X$X$X$X$X+X[.'.T.z.v.T.p.v.z.v.p.u.u.;.%.+.%.%.+.1.~.#.%.+.%.3.R.p.u.u.",
". @ H.;X:X$X$X:X*XXX[.[.[.+X X[.[.[.[.[.[.'.T.[.x.z.x..X+X+X$X@X+X[.p.p.p.v.z.v.p.p.v.z.v.p.u.:.$.%.+.+.%.#.~.o.....+.%.2.r.u.u.",
"X $ 9 Y.@X$X>XwXoXE.[.[. X+X[.[.[.[.[.[.[.[.[.'.'.'.T.z.p.c.+X[.z.p.T.T.'.T.T.z.v.p.p.v.z.v.p.u.%.$.%.%.+...o...o.....+.%.$.;.u.",
"= I w U.@X>XeX>X+X[.[. X.X[.[.[.[.[.[.[.[.[.[.[.[.[.[.T.T.[.+X[.T.T.[.[.T.z.'.T.z.v.p.p.v.p.u.:.$.;.;.O.%.+...o.U.o.....+.%.#.%.",
". > 4.+X:XeX>X#X.X+XoX.X[.[.[.[.[.[.[.[.[.[.[.[.[.[.[.[.[.[.[.[.[.[.[.[.[.T.z.'.v.z.v.v.z.v.p.u.;.%.O.%.$.%.....o.........+.%.#.",
"= = k.@X$X:X@X.X+XoX0XXXE.[.[.[.[.[.[.[.[.[.[.[.[.[.[.[.[.[.[.[.[.T.[.[.[.[.T.'.z.v.p.p.v.p.u.;.+.+.%.$.%.+...............$.+.%.",
"~ w U.@X$X$X$X+X XoX*X[.E.[.[.[.[.[.[.[.[.[.[.[.[.[.[.[.[.[.[.[.'.z.T.[.[.T.T.z.v.z.v.p.p.u.u.$.%.%.u.u.%.+.................+.%.",
"0 4.+X$X$X$X$X@XoXwXoX[.E.[.[.[.[.[.[.[.[.[.[.[.[.[.[.[.[.[.[.[.[.T.p.'.T.p.p.v.p.v.p.u.v.u.u.u.r.+.+.%.O.%.................%.+."
};
