/* XPM */
static char *b9dffe3ea6974300b58b7186e05c5b51UaktGFJRDTcoLwRa[] = {
/* columns rows colors chars-per-pixel */
"64 64 247 2 ",
"   c #030303",
".  c #0A0505",
"X  c #070809",
"o  c #0C0B0B",
"O  c #140404",
"+  c #1C0707",
"@  c #120C0C",
"#  c #15130E",
"$  c #0E0F10",
"%  c #140F11",
"&  c #0E1113",
"*  c #141414",
"=  c #191514",
"-  c #191917",
";  c #151619",
":  c #1A1719",
">  c #16191A",
",  c #1C1C1C",
"<  c #280807",
"1  c #380707",
"2  c #2E120B",
"3  c #37130C",
"4  c #221E1D",
"5  c #281918",
"6  c #3C1513",
"7  c #371816",
"8  c #341B1B",
"9  c #1F201E",
"0  c #22211E",
"q  c #3D2B12",
"w  c #1D1E21",
"e  c #241F21",
"r  c #371E22",
"t  c #1E2122",
"y  c #1A2128",
"u  c #232424",
"i  c #2A2524",
"p  c #282727",
"a  c #2A2927",
"s  c #252629",
"d  c #26292B",
"f  c #2B2B2B",
"g  c #372829",
"h  c #312D2D",
"j  c #2E302F",
"k  c #32312E",
"l  c #3F322C",
"z  c #272D30",
"x  c #2C2E31",
"c  c #332E31",
"v  c #2E3133",
"b  c #2C333A",
"n  c #333334",
"m  c #3A3535",
"M  c #3A3936",
"N  c #33363A",
"B  c #383738",
"V  c #36393B",
"C  c #3B3B3B",
"Z  c #470908",
"A  c #570708",
"S  c #50150D",
"D  c #441312",
"F  c #481816",
"G  c #561716",
"H  c #650A09",
"J  c #681411",
"K  c #4B2814",
"L  c #6C2A19",
"P  c #4A1F23",
"I  c #47282B",
"U  c #473737",
"Y  c #423D3D",
"T  c #503333",
"R  c #71322D",
"E  c #3E403F",
"W  c #4F4A0F",
"Q  c #685612",
"!  c #726D11",
"~  c #514827",
"^  c #46413E",
"/  c #7C7429",
"(  c #2F3840",
")  c #363B43",
"_  c #3D3E41",
"`  c #433E42",
"'  c #4C3C46",
"]  c #573D42",
"[  c #3C4043",
"{  c #3C4249",
"}  c #434344",
"|  c #4A4444",
" . c #444549",
".. c #484849",
"X. c #4B4B4C",
"o. c #594548",
"O. c #514C4D",
"+. c #55514D",
"@. c #474D56",
"#. c #4C4E51",
"$. c #564C52",
"%. c #4E5153",
"&. c #4C525B",
"*. c #545354",
"=. c #5A5354",
"-. c #58565A",
";. c #5B5B5C",
":. c #684747",
">. c #634B4D",
",. c #6A4A48",
"<. c #694E52",
"1. c #645253",
"2. c #6A5758",
"3. c #635D5C",
"4. c #765B5C",
"5. c #5E615F",
"6. c #69615B",
"7. c #4C5E6C",
"8. c #575966",
"9. c #5C5E62",
"0. c #675A62",
"q. c #775F63",
"w. c #5D6166",
"e. c #636364",
"r. c #6B6466",
"t. c #63656A",
"y. c #65696B",
"u. c #6B6B6C",
"i. c #786769",
"p. c #6F706F",
"a. c #636A73",
"s. c #6C6D73",
"d. c #756D72",
"f. c #6D7176",
"g. c #737373",
"h. c #7A7476",
"j. c #73757A",
"k. c #7C777B",
"l. c #767A7C",
"z. c #7B7B7C",
"x. c #89130B",
"c. c #8F3711",
"v. c #B42B16",
"b. c #ED1C24",
"n. c #EE232B",
"m. c #EE2931",
"M. c #EF2F36",
"N. c #F1343B",
"B. c #965A18",
"V. c #B06A3F",
"C. c #C75D3E",
"Z. c #F13D43",
"A. c #896257",
"S. c #846867",
"D. c #866E77",
"F. c #867779",
"G. c #947776",
"H. c #B07D7E",
"J. c #EF4D54",
"K. c #C65D61",
"L. c #E95D62",
"P. c #D6777B",
"I. c #F06B70",
"U. c #908B18",
"Y. c #A6A850",
"T. c #87827E",
"R. c #6C7A87",
"E. c #777C85",
"W. c #7B7C83",
"Q. c #857D85",
"!. c #947D82",
"~. c #F37E83",
"^. c #7C8284",
"/. c #7D8488",
"(. c #798893",
"). c #758FA2",
"_. c #828384",
"`. c #8A8786",
"'. c #83858B",
"]. c #858B8D",
"[. c #8A8B8C",
"{. c #958989",
"}. c #878B93",
"|. c #948F90",
" X c #8D9298",
".X c #969598",
"XX c #9B9A9B",
"oX c #A48A88",
"OX c #A69998",
"+X c #B69696",
"@X c #9CA098",
"#X c #A7A29E",
"$X c #B5A39B",
"%X c #8C96A1",
"&X c #9699A0",
"*X c #9B9DA2",
"=X c #A39EA2",
"-X c #9BA2A6",
";X c #9BABB6",
":X c #A3A4A4",
">X c #A7A7A9",
",X c #AAACAE",
"<X c #B3ABAA",
"1X c #B8B1AD",
"2X c #AAACB2",
"3X c #B6AFB1",
"4X c #ACB2B6",
"5X c #B3B3B4",
"6X c #B7B7B9",
"7X c #BBBBBB",
"8X c #D08B8E",
"9X c #F08F93",
"0X c #DD9FA2",
"qX c #CCAEAB",
"wX c #C3BCB8",
"eX c #F5ABAE",
"rX c #C7C2BC",
"tX c #A8BCC7",
"yX c #B9BDC1",
"uX c #E6BEC2",
"iX c #B6C1C7",
"pX c #BEC2C5",
"aX c #BEC9D1",
"sX c #BCD3E0",
"dX c #C4C4C4",
"fX c #C8C6C8",
"gX c #C5C9CB",
"hX c #CBCCCC",
"jX c #D2D1CE",
"kX c #CBCDD1",
"lX c #CDD3D4",
"zX c #D3D4D4",
"xX c #D5D8D8",
"cX c #DBDCDC",
"vX c #E1DDD9",
"bX c #DEE0DE",
"nX c #E6E5DF",
"mX c #CDDBE5",
"MX c #D7DDE1",
"NX c #DDE3E4",
"BX c #E3E4E4",
"VX c #E7E8EA",
"CX c #ECECEC",
"ZX c #EFEFF1",
"AX c #F4F4F4",
"SX c #F6F8F8",
"DX c #FCFCFD",
/* pixels */
"b.b.b.b.b.b.b.b.b.b.b.I.qXB h f f w d p d d , , , p _ V u f f #.e.*.n f c s ` w > u > u u p f u u f B f t t G.L.m.L.Z.b.b.b.J.CX",
"b.b.b.b.b.b.b.b.b.b.b.I.+XV n f u u x z w u u t t , p V s f > } -.-.p p f x n > , , > 0 f 4 f n f p f n v t 1.L.m.m.n.b.b.b.n.~.",
"b.b.b.b.b.b.b.b.b.b.n.8X=.n v f d f v d t , s u u t > N s f p } ..} u n , f , u 4 u f f u , s x f f f f v d ) S.L.m.b.b.b.b.b.b.",
"b.b.b.b.b.b.b.b.b.b.J.S.k n d u f d d d d , w x n f f u x V n C [ B f B f f u p p f a u u p p u d f u f n x x V G.I.n.b.b.b.b.n.",
"b.b.b.b.b.b.b.b.b.n.P.*.k f u n _ v x s u u u s t w p , N d f B x B s p f p f u 4 , 4 p u , f x v n f f V _ f B  .oX9Xn.b.b.b.n.",
"b.b.b.b.b.b.b.b.b.J.2.} n n s x x z N f w u f t u u f f f d f B B B p , n u n p , , > u , , v n x f n n f n n p n } <XI.b.b.b.n.",
"b.b.b.b.b.b.b.b.L.qXC v f s d d d d x v d p u d u s f f u f f n n n n u f p n f f f u a u , f k ( ( v v u h n f p B | H.J.b.b.M.",
"b.b.b.b.b.b.b.N.qXe.f p u d d d v N V v p d u x s > , f f u p > n u , f _ s d u > u f p f t d x d d V x d u p u f f C =.0XL.b.n.",
"b.b.b.b.b.b.b.J.i.f , p n f p n v f f u p p > f %.u.d o , M g.f , f 9.8.v $ u 3.*.p ; s n d u n f t s x V n f , 0 a f ` #XeXn.m.",
"b.b.b.b.b.b.n.P.-.f f n n f f V v x u , p *.e.6XNXZX5X;.n } -Xf.f d..Xj.C #.:XjXzXfXg.y.C s > s v n f d d C f > p n n v i.I.b.b.",
"b.b.b.b.b.b.n.8XN u B m m a f v u f } ..XXgXgXBXVXNXlXcX[.} t.W.V j.s.#.l.zXBXhXxXbXzXxXgXy.V d u u V f n N h f p B f V Y K.J.b.",
"n.b.b.b.b.b.m.+XV f a m 0 u w $ ;.5XfX6XfXVXVXCXBXxXCXhX].6X_.O.e _ g.5X}.gXSXdXxXCXcXMXzXjXlX5XF.: * w , v n f d f u w d 9.0XM.",
"n.b.b.b.b.b.M.+Xv n n u , M z._.XXDXgXxXjXCX2XcXVX7XBXgX4XcXmXpX:X,XxXZX2X.XiXyX7XSXpXcXxXMXNXSX7X[.XX..p > n n u f C p , d oX9X",
"n.b.b.b.b.b.Z.{.a Y p t u.xXvX7X[.SXlXzX7XyX'.'.&X.X X}.2XbXDXxX7XcXSXZX5Xy.a.}.E.XX X7XkXNX5XAX>X>XSXBX`.t s n f > } B d f -.VX",
"b.b.b.b.b.b.J.F.f n n d l.CXCX[.} dXz.[.[.-.s.s.s.j.E.(.'.7XpX4X5X:X,XgX Xu.j.u.e.y.'./.l.2Xs.gXs.g.CXZXXXw x u B u k f C b n ,X",
"b.b.b.b.b.b.I.u.a n u s E.hXcX..x j.} #.#.C u.W.W.j.R.E.j.h., ;.lX} % Q.}.;._.g.g.f.E.a. .w. . X&.m hXNX}.u , t f u M f n N u C ",
"b.b.b.b.b.N.uX .f M p ` s.2X,Xu ; u 4 * $ ; _ *.-.} [ _ p._.* *.dX^ = Q.E.B } } -. .&.x * ; , d w e :XpXW. .w x x : n n u _ n s ",
"b.b.b.b.b.I.VX[ u f ^ h.u.'.a.o @ @ + 4 ; , u > > ; > @ g.^.@ ;.kX} # W.f.* : > > * w , > f 4 @ $ * -. X'.'._ u d u u f n d B f ",
"b.b.b.b.b.~.ZX .* *.XXW.W.-._ o < 3 < + O g M 0 p 0 p : g.j.: | [.m , 9.a.o u = 4 e p p @ < + 1 3 : f  .j.}.}.f ; ; p V n f x h ",
"n.b.b.b.b.eXMX#.p u.:XW.t.w * o + < D < O @ @ o @ @ @ @ u.w., 5 5 4 > @.8.X * @ @ o @ @ O < Z < O o o > e.'.&X..} f , C ) d f f ",
"b.b.b.b.n.eX^.*.Y :X-Xz.9.@ $ o 1 x.J < + + O O + 1 Z Z U v   % a :   : p Z A D < + + < < < H x.3 o $ ; e.'.*Xs.C ;.f f V s v d ",
"b.b.b.b.N.H.} } Y [.W.-.V $ * $ 1 Z . O + 1 Z Z 1 < < 1 Z +     4 o   O 1 A < < 2 2 K 3 < < . 2 6 $ $ o } -.u.s.a X.C f N s u x ",
"b.b.b.b.L.1.*.f X._.g.*.* * * $ @ 6 O 1 Z 1 U 1.1 < 1 . 6 2     X   X @ 3 . 2 1 < U +.< 1 1 2 < + * ; $ w ;.3.z.B Y O.d N f v N ",
"b.b.b.N.$XC O.p r.u.d.X.: s u * o < Z 1 5 M u N W W 1 A < = ; > ; ; u : + H L K ! ~ n # q 1 S < . : f u > -.u.g.t.m -.n u f N N ",
"b.b.b.J.OX_ O.C e.e.y.n u [ f , : 8 Z H L Y.K 2 B.! H A 1 p -.%.w.%...4 < Z A K U.W S ! ! 1 1 8 : , B } , m g.u.j.M =.h f f n x ",
"b.b.M.9Xz.{ C } *.;.-., ..y.9._ O.4.x.v.x.Q B.B./ K L H Z &.X.-.-.e.;.V S S R G Q U.B.Q ~ L J 1.*.^ X.%.n * *.e.e.} m n p C u d ",
"b.b.M.I.*.#.f X.e.y.} n u.'.].t.-.i.x.x.x.c.c.B.C.v.J 1 G )./.F.3.e.(.(.R J R V.V.B.c.c.c.S J h.t.;.].E.*.f n -.X.O.k } u C p V ",
"n.n.I.P.C ..f *.y.t.f ..W.>X'.e.X.e.G.2.U G H H x.R *.#.z.*XdX6X[.-X4XtXl.8.s.2.J H A J T =.k.z.| -.^. Xp.#.f ..=.O.m ^ f f f v ",
"b.m.eXfXC ` f n u n p X.k.,X,X].;.j.-.=.=.=.=.%.;.;.[.2X7X,X6X7X@X5X7XyX7X-X XR.w.w.9.X.u.g.u.l.t.'.5X*X].*.N f u n f Y Y p N f ",
"J.~.0Xj.} n e f d , n C u.6XkX4X-X>Xl.].^.E.W.T.`.T.7X|.6X.X.X-X%X X>X].XX.XpX-X].-X^.W.'._.l._.[.4XyXgXl.%.} , 0 s u h C p V d ",
"eX3XX.w Y f f n [ f p f 3.:XhX[.5X:Xu.y.j.^.l.'.g.[.[.[.-X-Xg.`.5X]./.].XXXXXX-X].W.W.]./.j.l.[.>X].6XyXj.V j f O.n s f } a x n ",
"{.*.C p } C ` m } v , a | g.fX:X5.u..XT.l.j.f.]..X;.T.,XdXjXdX<Xf.:X7XdX7Xl.E.a. X.Xl.y.a.}. X_./.XXgX,X#.d ; u -.9. .{ @.n u , ",
"M X.n u C } C  .*.f ; f 4 e.:X|.^.9.].[.%.f.;X2X;X%.7XDXDXDXDXSXpXAXDXDXDXSX:X-.W.'.}..XW.=.z.g.z.W.>X Xu u ; , ..t.[ N &.f , v ",
"f u p f C n } ;._ u #.*Xp } _.j./.s.} -.;.*.#...e.|.SXpX*X,XAXDXDXDXAX6X2XcXSX,Xe.*.X...;.;.=.$.t.s.W.X.* |.u.0 k 3.X.d 8._ p v ",
"n p a n B n } } p , s.}.4 o } 9.C ..X.} } B n p.jXAXdXd & > _.CXDXDX.X, * #.VXAXkXg.} X.| Y m m Y t.*.* o z.}.p 0 M } f V n 4 , ",
"f k f f  .n n | n f %.%Xu   o % u h n f k t.6X_.5XbXC b 7.y   '.DX,X; X b t y.BX4X^.dX=.} } M m u : o   o 3.*.f v C ..d [ n u n ",
"f n u n _ f n C ..X.f u $ : o o o o : 0 p u.CX} u.hX} :XtX).b , 5X_ & R.;X.Xt.zXz.%.MXX.n f * o o X   : @ * p B V B X.V N n ; j ",
"n C p p n f n C X.} - u u h % o X o ; a s t.VX..=.dX:XZXSXmX;X)  XV (.sXNXCXpXhX5.X.BX;.k p o   o   o f 0 , , n n n B @.b u n v ",
"C C v f n , d v n n a k p , * o   w * f u.dXDXXX` XXfXDXDXDXDX*Xj.j.NXSXDXDXpXg.f .XSX5Xe.> o X o o ; 0 0 a d f f n a d x x x v ",
"V d v f s p f f f B u k n % o X o X X.:XBX5XgX.X, C XXcXNXVXSXCXg.fXSXVXBXBX*Xc @ k.cXgXxX|.x   X X o o f C u n v M f d x v d x ",
"C v _ u f V V ..n f , f n ; o   o @ >XcX.X`.XX3X`.t.f C -.9.[.6XcXzX:XW.t. .M 6.h.#X#X|.<XCXE.X X   o * u v , n C E  .v x s b ) ",
"v f n f x n n B d f f n n u o X @ p ]./.[.7XbXSXDXCX}       o  .aXs.> o     Y nXDXSXcX7XXX|.9., o o o - x d f p 0 u n x n v x x ",
", f .._ B d n , d f f j } x > > o ; .XhXkXcXdXCXSXSXXX..f > X s tX&.  o s  .[.AXDXSXcXBXkX6X;.  o ; > f ..N n u h , 0 u p v V  .",
"k f n c n B B u n p u f C f , > C ^.hXVX:X:X,XhX7X7XBXCXcXjX5X-.} M `.5XMXAXSXcX7XgX4X4X6XSXBX=.: > t f } p u u n p f n n V d [ ",
"C n C } B  .n f n u u f C f , w &XgXz.|.y.[.,X,X`.r.fXVXAXDXDXxX:X5XAXDXAXBXxXk.6.:X,X5Xz.XX7XcXXX@ : n B f n 4 n f p B c _ V V ",
"n } n ..n m n f n f f u n B u  X-XXX:XzXdXdXkXkXOX2.<X6XhXhXcXzXfXiXgX7XyXdX6Xr.2.dXwXrX6XrX=X-X7X} * n n f } 4 C n f } n x C f ",
"> n } C n h B p f , p , - u 3.>X.X`.fX5X7XgX7XOXF.>.OX6XrX5X&XQ.:X X#X5XdXjX2X0.T :X:XfX3X#X3Xi.r.{.^ p > > p ; n h n N N B } n ",
"k C X.X.a f C u p > f f , ^ OX`.3XwX1Xz.k.2X7XdX=Xo.|.|.:X6X2Xk.=Xk.+X<XqX5X.X8.:.$X6XgXXXe.XX6XOX+XT.h > n V ; B f m n N f %.} ",
"} } C C n h f n f , n n - U OX1X1XrX<Xr.+.OX>X6X|.g F.OXOX<X:X0.OXF.oX<XqXwX{.U A.qX4X=Xu.` |.dXfXfXoXa u B B u x n p u N u C X.",
"X.C n n V p u V f p f x * l S.{..X1X6Xr.Y `.|.XX{.r i.OXoX`.G.:.4.o.S.=XOXOXD.5 S.|.Q.F.$.$.=X<X3X{.i.4 * d V a f V f f n x x } ",
"C n } } n u ; p n f p *   5 4.{.>X<X<XD.1.$.W.k.OXU 4.i.4.4.G.,.:.I i.F.F.d.0.8 d.`.F.r.3.i.|.#XOXQ.o.:   * v m C f , p f  ._  .",
"n C C [ C p * p f u f ,   5 2.!.oX+XF.Q.d.I r.F.{.,.q.d.>.U S.:.4.o.q.1.2.Q.i.T F.XXF.2.D.{.F.#XS.G.:.@   , x f f u * w j ..{ N ",
"n n V v n p , > - d n f * 5 >.D.S.S.o.}.F.U o.!.4.P U 0.| m o.I o.l o.U U o.>.F 1.i.i.2.F.XXi.F.q.S.4.4 * f { N > > ; u x n n b ",
"V V n u f x u , , 0 0 , * = o.2.4.q.2.G.G.i.o.i.I D D I r g e < g r 8 p p 7 6 1 3 ] 1.i.D.Q.D.2.2.,.o.; > u , u , > 0 f f f f ( ",
"d x u n f n f Y B p ; 0 * 4 g ] <.2.S.4.T U U h + O O % _ : . O @ @ O = B = O . O 5 p U <.>.d.i.2.>.h * ; p ; 4 } M B a f k h f ",
") v f B x B h n X.n , u > ; 0 U :.<.o.f : $             *               >             $ : 4 g 1.2.=.p ; , 4 * f ..n C f p h h p ",
"[ n _ n f C n f C f u u > * p h l a @ o f C f ..y._.g.u.u.j.t.p.w.u.g.g.g.u.z.z.g...x B n , * , h h d , t , : h m f a f p f n m ",
"} ` V c p n n C Y m u h a u f n p , O.9.u.u.u.^.|.wXvXlXVXZXCXAX<X6XSXAXBXlXcXxXXX`.e.g.y.t.w.f p n p 9 v n a M n n p n f 4 a C ",
"X.B n n f n B m m f f n u p f C N p t.z.u.3.k.e.0.2.r.t.'.<X<XfX3XwXzX5XOXd.k.k.0.1.0.=.3.d.e.C u c v u u n f f n } n n f f f n ",
"d p V p n n B u u , , a f n p d e = f Y n m | M $.r. ... .0.0.d.4.0.d.2.2.o.>.$.1.| Y h p U M 4 * > p n , u ; , p f f f , f n f ",
", , V C a , ; - , : ; f f V ; = 8 6 2 8 5 8 7 7 g 8.0.` ' 0.0.1.T ' 0.4.:.U >.O.I 7 2 8 g 5 p 8 5 4 , C f , * 4 - , 0 0 f n p , ",
"f , f n f , > ; - - u n V u * 5 6 F 3 8 7 7 6 F 8 g Y F G I $.<.o.' $.>.I 6 U ' 8 D 6 6 8 p r D 6 p - s v f > - > > : , V j > , ",
"k t s s u 4 * o o ; , p , * : 4 g P 7 4 g 7 D 6 G D 8 S G D T ] g l o.' F Z F P S F 3 D 7 u I P p u - * 4 u > > * > ; u f u t , ",
"p d v d , p u ; , u ; * ; - : 0 p 4 , , a 3 F F F G F D D G P I 6 T g 8 D G I G F 3 3 D p d s f d > > * * > u , > > , x v , , v "
};
