/* XPM */
static char *fe56e7d845304f7b82951c4e835391585C3YfQVuWSLITJ3P[] = {
/* columns rows colors chars-per-pixel */
"64 64 199 2 ",
"   c #020203",
".  c #090603",
"X  c #0B0B0A",
"o  c #0B0905",
"O  c #100D0A",
"+  c #140E04",
"@  c #14110C",
"#  c #1C1609",
"$  c #1C1606",
"%  c #181715",
"&  c #0F0F10",
"*  c #201C11",
"=  c #2E260F",
"-  c #2C2C2D",
";  c #272729",
":  c #312F2D",
">  c #2F312F",
",  c #33312E",
"<  c #2E2F30",
"1  c #2E3032",
"2  c #333332",
"3  c #3C3C3C",
"4  c #393736",
"5  c #403F3C",
"6  c #3B4E3D",
"7  c #3B533D",
"8  c #756009",
"9  c #5C462B",
"0  c #42413E",
"q  c #5C4830",
"w  c #694F2E",
"e  c #634A2B",
"r  c #6B512F",
"t  c #6C5232",
"y  c #6B563A",
"u  c #745B3B",
"i  c #7A5E3F",
"p  c #715635",
"a  c #3F3F40",
"s  c #3C5340",
"d  c #3D5465",
"f  c #3E5668",
"g  c #454545",
"h  c #464A46",
"j  c #4A4946",
"k  c #464748",
"l  c #47484A",
"z  c #4A4A4A",
"x  c #484742",
"c  c #514F4C",
"v  c #534E46",
"b  c #415542",
"n  c #53514C",
"m  c #5C574E",
"M  c #4C4F51",
"N  c #545452",
"B  c #585754",
"V  c #5B5A56",
"C  c #5E5D5A",
"Z  c #575958",
"A  c #645F56",
"S  c #605F5B",
"D  c #7B6242",
"F  c #656157",
"G  c #676358",
"H  c #686459",
"J  c #736D5E",
"K  c #405666",
"L  c #405769",
"P  c #42596B",
"I  c #495E6D",
"U  c #405867",
"Y  c #4B606F",
"T  c #4D6373",
"R  c #516674",
"E  c #556975",
"W  c #586C76",
"Q  c #5A6E7B",
"!  c #576C7A",
"~  c #6D6D6D",
"^  c #686761",
"/  c #746F63",
"(  c #787366",
")  c #687177",
"_  c #737474",
"`  c #7A7A7A",
"'  c #797877",
"]  c #8A7211",
"[  c #8B6A46",
"{  c #886B49",
"}  c #916E49",
"|  c #916E47",
" . c #94734E",
".. c #937450",
"X. c #9B7D57",
"o. c #837D6E",
"O. c #857F71",
"+. c #AE9326",
"@. c #9C815C",
"#. c #A2855F",
"$. c #868071",
"%. c #8C8675",
"&. c #8F8876",
"*. c #8F8878",
"=. c #8E8778",
"-. c #908976",
";. c #928B7A",
":. c #9C8973",
">. c #978B77",
",. c #A28660",
"<. c #A58963",
"1. c #A7937B",
"2. c #A69173",
"3. c #BFB06B",
"4. c #CEBB6E",
"5. c #708291",
"6. c #7D8D9A",
"7. c #6F8190",
"8. c #828281",
"9. c #8B8A89",
"0. c #9C9685",
"q. c #9F9887",
"w. c #9F9988",
"e. c #949189",
"r. c #919492",
"t. c #A49D8B",
"y. c #AA9A85",
"u. c #A6A18D",
"i. c #A9A18E",
"p. c #A7A590",
"a. c #ACA591",
"s. c #ADAA94",
"d. c #B1AB94",
"f. c #B1AD99",
"g. c #B0A793",
"h. c #B4B29D",
"j. c #BAB59D",
"k. c #BAB599",
"l. c #B9A48C",
"z. c #8897A4",
"x. c #B5B3A3",
"c. c #BAB6A1",
"v. c #BDBBA4",
"b. c #ACB7BF",
"n. c #C2BC9F",
"m. c #C2BDA4",
"M. c #C2BFA8",
"N. c #C5C1A4",
"B. c #CAC4A4",
"V. c #C6C2AA",
"C. c #C9C6AC",
"Z. c #CDC9AE",
"A. c #D3CDAD",
"S. c #D6CCA9",
"D. c #DBD2AE",
"F. c #CDC9B1",
"G. c #C9C7B9",
"H. c #D3CEB2",
"J. c #D1CFBF",
"K. c #D6D1B3",
"L. c #DCD5B3",
"P. c #DED8B7",
"I. c #DED9BA",
"U. c #E2DAB6",
"Y. c #E3DDBB",
"T. c #E6E0BD",
"R. c #E9E3BF",
"E. c #ADB8C0",
"W. c #B3BEC6",
"Q. c #BBC4CB",
"!. c #BAC3CA",
"~. c #CBCCC5",
"^. c #C9CDCA",
"/. c #D1CFC1",
"(. c #D6D3C3",
"). c #D9D6C6",
"_. c #DBD9C7",
"`. c #D9D7C8",
"'. c #DCDACB",
"]. c #D3D3CB",
"[. c #DEDDD3",
"{. c #D6D7D1",
"}. c #C8CECE",
"|. c #E3DEC5",
" X c #E1DFD5",
".X c #EBE5C1",
"XX c #EFE9C4",
"oX c #EDE8CD",
"OX c #E9E4CA",
"+X c #F3EDCA",
"@X c #E5E3D7",
"#X c #EEEAD2",
"$X c #ECEADD",
"%X c #E6E4D9",
"&X c #F1ECD3",
"*X c #F1EEDE",
"=X c #F3F0DF",
"-X c #ECEBE2",
";X c #F9F6E7",
/* pixels */
"Q.Q.!.z.!.!.z.6.P f L L L d d d L L L L L L L L L L L P L L L L L L L L L L L L L L L L L L L d T R R L L L L L L L L L L L L L ",
"!.!.Q.!.Q.Q.W.T f L L L L T R T d L L L L L L L L f P 7.P f L L L L L L L L L L L L L L L L d ! ].[.].Y d L L L L L L L L L L L ",
"z.z.!.Q.Q.Q.E.I d L L f I Z.@X{.! d L L L L L L L L L P L L L L L L f f L L L L L L f L L d Q ~.~ C Z l K L L L L L L L L L L L ",
"6.z.!.Q.Q.E.T f L L L K z B N ^ ~.Q d L L L L L L L L f L L L L L f f L L L L L L L P L d Q ~.( K.K.V N K L L L L L L L L L L L ",
"6.z.!.}.E.T d L L L K l g g g s S ~.Q d L L L L L L L L L L L L L L L L L L L L f I 5.L Q ~.( H.T.U.L.K.N d L L L L L L L f L L ",
"z.W.}.E.T d L L L K l n N N N N z F ~.Q d L L L L f f f L f d L f f f d f L L L L f L Q v.( K.@XC z F Z.C l L L L L L L L P L L ",
"!.!.b.T d L L L d l V H.Y.H.P.Y.K.N C V.W d L f f I I I L I Y K I I I Y I d f d f T W v./ K.*XC g k g C Z.N d L L L L f P 5.P f ",
"E.R I P L L L L I N H.+XK.^ K.$X+XK.N V V.W d I R x.t.e.Z x.h.C t.t.a.x.0.Z I I E Z.C./ Z.+X$XN g z g N Z.S l K L L L L L P L L ",
"I d L 5.P f d T V.C I.L.B g z C  X;XK.N V N.) x.V.c.B z n 0.F c.j.F d.V N f.M.v.C.H H Z.Z.;X$XZ z g X g S C.N d L L L L L f L L ",
"d L L P L L d T H./ A.F a X o 3 F $X+XK.Z B C.H.c.B g k z z z f.B g N z g C h.B C A.P.B.Y.;XK.N 3 X o g N K.F d L L L L L L L L ",
"L L L f L L d T I.T.P.N g o   X j j.;XXXK.Z C C.C g z z g < 2 4 - 2 g z z z z 2 z Y.R.n.XX$XC 3 X   o g N U.K.I f L L L L L L L ",
"L L L L L L d T $X+XP.N g o   o 3 n %XXXXXK.n z g z z g 2 - - - - - 2 g z z g g N L.N.N.;XY.z o     o g B Y.T.Y d L L L L L L L ",
"L L L L L L d T -X;XI.n a o     o j m.*XXXU.N g 4 g z z g 2 - - - 1 g z g g 4 g N P.B.Y.;XY.z       X n k..XI.Y d L L L L L L L ",
"L L L L L L d T -X;X.Xk.n o       z j./..XY.N g g 4 g z z 2 - - - 2 z z 4 g z g N A.N.N.=XI.0       3 s.N.R.I.Y d L L L L L L L ",
"L L L L L L d T -X;XOXR.d.%     o z d.N.R.H.n 2 g g z z z g 2 - 2 g z g g 2 g z l B d.n.N.k.@     X g i.m.R.I.Y d L L L L L L L ",
"L L L L L L d T $X;X;X.Xn.o.X   o 3 z d.d.g g z g 4 g z z g 2 - 2 z g 2 2 2 g 4 g 2 j d.N.u.X   & ( =.i.n.R.Y.Y d L L L L L L L ",
"L L L L L L f Y Y.;XXXY.a.=.3 o o X 3 c g g z z g g 4 g z z g 2 g z 2 - g g g 2 g g g B u.% o g o.-.i.j.N.R.K.Y f L L L L L L L ",
"L L L L L L f Y Y.;X.XY.;.=.$.z g 3 % g 4 g z g 2 2 g 4 g z g 2 g z g 2 g 4 g g 2 2 z g 3 g g z =.;.a.n.R.Y.E f L L f L L L L L ",
"L L L L L L f Y K..XXXY.;.O.$.( z z g z g 2 g z g g z g g 2 g 2 g z z g 2 - g g g 2 g g - z z z q.i.j.n.T.K.I d L L P L L L L L ",
"L L L L L L L f E Y.P.i.o.2 ; - 2 g z g 2 2 g z z g z z 2 - 2 2 g g z g - ; 3 g z 3 g 2 - g 3 g n ;.n.N.j.E f L f P 5.P f L L L ",
"L L L L L L L d Y C.x 2 2 - - 2 g 2 2 g g g z z z 4 g z g g g z g 4 g 2 , g g 4 g 2 2 g z g 3 < 4 i.k.k.s.I f L L L P L L L L L ",
"L L L L L L L L L I < ; 2 g z g g g g z z z z z g g z g 2 g z z z g g 3 3 z g g z g 3 3 g 3 3 g 2 4 4 , 3 K L L L L f L L L L L ",
"L L f L L L L L L d 2 2 g z g 2 2 z z z z z g g N Z g 2 2 g z z z 2 2 g g g z Z g g g 2 - g 3 g 3 g < ; < d L L L L L L L L L L ",
"L L P L L L L L L L l g z z z g g z z z z z Z C @X@XC z g z g z g g g N N F @X[.Z N z g 3 3 2 - g 3 g 2 - 2 d L L L L L L L L L ",
"f P 5.P f L L L L K l 2 g z z z z z z z g N ].$XY.Y.Y.K.C g 4 g 4 g C K.K.D.U.Z.[.].N g 3 g g 3 3 ; g 3 - ; d L L L L L L L L L ",
"L L P L L L L L K M g 2 g z z z z z z g 1 - j A.#...L.XXK.N g j g N K.U.,.X.<.B.j 3 2 g g g g 3 g 2 3 g - ; d L L L L L L L L L ",
"L L f L L L L f I ~ 4 g z z z z z g g 2 2 4 : g n.X.@.R.Y.n g 4 g N D.#.S.T.B.g : , 2 2 3 z z 3 g 3 3 g 2 ; - d L L L L L L L L ",
"L L L L L L f I _ N g z z z z z l Z 2 , i i u - j B.U.Y.L.3 g z g 0 A.,.Y.K.j - u D i , ; g 3 3 z z g 4 g - ; d L L L L L L L L ",
"L L L L L f L _ ' ~ z z z z z g ^ G.3 ; O * # O t n K.2.A.3 a 4 g 3 A.R.I.v t O % # X ; - g g 3 g z z g 2 - ; d L L L L L L L L ",
"L L L L L f I _ _ N z z z z z V ~.B 4 ; @ 3.+.o # D D.R.P.3 - 2 g 2 @.R.L.D $ @ 4.+.o ; 4 g x.N 3 z z z g , ; d L L L L L f L L ",
"L L L L f L _ ' _ ~ z z z N 8.8.r.'.c.0 q = ] $ 8 # u U.A.3 g z g 4 B.L.u # 8 # ] = q 0 h.m.H.[.N g z z z g ; - d L L L L P L L ",
"L L L L f I _ _ N _ z g z ` 9.r.m.H.C.m.j.t + . + . e y 3 2 g z g 2 5 y e . + . + y j.m.C.C.F.%XC g z z z z g - d L L f P 5.P f ",
"L L L L f I _ z z ~ z g N 9.r.J.Z.V.C.C.F.n.y t 9 @ 9 , a j z z z j a , 9 @ 9 t y j.Z.C.C.C.C.F.c.B z z z z g - d L L L L P L L ",
"L L L L f I _ z z z z N 9./.(.F.C.C.C.C.(.Z.N.n...w { N B { [ [ [ { B N { w ..n.m.s.V.C.C.C.C.V.C.N.j.B g z g - d L L L L f L L ",
"L L L L K M ~ z z z z 8.(.'.'.C.C.C.C.C.C.C.C.F.m.@.D.Y.S...r t p  .S.Y.D.@.m.F.C.V.C.C.C.).(.f.V.C.Z.c.B k g - d L L L L L L L ",
"L L L L K z z z z z z 9.`.'.).C.C.C.C.C.C.C.Z.T.#XOXXXY.<.1.u [ [ [ ,.T..XY.R.Y.Z.C.C.V.C.C.C.V.C.C.C.Z.c.B g - d L L L L L L L ",
"L L L L L K k z z g Z J.'.`.F.C.C.(.C.C.C.T..X&X&XXXR.R.L.l.1.} [  .D..XR..X.X.XR.T.V.s.C.V.s.V.V.C.C.C.Z.c.N ; d L L L L L L L ",
"L L L L L d 2 g z z 8./.'.'.).C.C.C.C.C.Z.R..X&X&X.XR..XR.l.1.u [  .Y..XR.R..X.X.XT.d.p.V.C.V.V.f.(.C.C.C.Z.j., 1 K L L L L L L ",
"L L L L L k 2 g z z N r.).'.`.C.C.C.C.Z.T..X.X.X&X.XR..XY.1.p t [ i U..XR..X.X.X.X.XY.s.p.V.C.C.V.C.C.V.C.Z.j.4 - d L L L L L L ",
"K K K U d 2 : g z g z c.'.'.).F.(.C.C.`.&X&X.X.X&X.XR..XoX1.t r w u Y..XR..X.X.X.X.XY.s.p.V.C.C.C.C.V.g.V.h.5 - 2 K K K d K K K ",
"s s s s 7 - - z z z N a.(.'.`.Z.C.C.C.`.#X&X.X.X.X.XR..XOX1.t r w u D..X.X.X.X.X.XR.n.p.V.C.C.C.C.C.s.a.t.0 - - 2 C b s s s s s ",
"7 7 7 7 7 > - g z z e.a.g.V.).).C.C.C.C.F.#X.X.X.X.X.XY.y.:.t w t w D U..XR..X.X.XT.s.p.V.C.C.V.V.m.a.a.t.z g 2 j F F z h 7 7 7 ",
"7 7 7 7 7 6 > 2 g z C i.a.a.G.).F.C.C.C.C.#X&X.X.X.X.XY.:.t t t t w p U..XR..X.X.XT.p.p.V.C.m.;.;.;.i.a.t.N g 2 A H H A z z h 7 ",
"7 7 7 7 7 h - 2 g g e.t.t.a.s.V.(.).Z.C.C.oX&X&X.XR.XXOXD r [ [ [ t u Y..XR..X.X.XY.p.p.m.p.;.t.i.i.a.a.t.n g 4 A H G F z z z z ",
"7 7 7 7 7 6 > 2 g 3 g g N t.a.a.g.C.(.C.C.F.#X&X.XR..X|. .[ } | } [  .L..X.X.X.X.XC.p.u.u.-.-.a.a.a.a.a.w.z k z F G G G A z z z ",
"7 7 7 7 7 h 2 > g 3 3 3 g t.a.a.a.s.V.C.C.C.oX&X.X.XY.X.[ [ [ [ [ [ [ X.Y..XR..XY.s.u.u.;.i.a.a.a.a.a.w.N l z F G G G H F z z z ",
"7 7 7 7 7 b g - ; 3 3 3 g t.a.a.a.a.a.s.V.C.F.#X&X.XU.{ j z z z z z j { U..X.XY.s.u.u.-.*.a.a.a.a.a.t.N g z F G G G G H F z z z ",
"7 7 7 7 s F z 2 - g 3 3 g q.a.a.a.a.a.a.g.V.Z.#X&X.XV.B z z l l l z z N N..XR.N.u.u.-.=.-.i.a.a.a.g.t.z z F H G G G G H F z z z ",
"7 7 7 7 z A z g 2 g g 3 3 j t.a.a.a.a.a.a.a.V.oX#X_.V.8.' ' N z N _ g z v.H.Y.j.u.-.=.-.i.a.a.a.a.u.q.c z F H H G G G G F z z z ",
"7 7 7 7 z A z z g 4 g 3 3 g t.a.a.a.a.a.i.;.i.f.#X'.M.B & % ~ z ~ % X N m.C.n.;.*.=.-.i.a.a.a.g.i.N z z o.H F H G G G G G A z z ",
"7 7 7 7 z A z z z z z 3 3 g q.a.a.a.a.a.i.-.=.;.|.'.F.j.z o X o X o z c.Z.C.k.-.=.=.-.i.a.a.a.u.q.z z N $.H F G G G G G H F z z ",
"7 7 7 z F F z z z z z g 3 3 j q.a.a.a.a.a.i.-.=.0.G.J.H.c.%       % j.F.m.c.;.=.=.-.i.a.a.a.u.N z z o.%.o.m F H G G G G H F z z ",
"7 7 7 z F H A z z z z z 3 3 3 j q.a.a.a.a.a.-.=.$.z B G.V.u.X   X u.V.j.N z $.-.-.i.a.a.a.a.w.z g z %.=.m n F G G G G G H F z z ",
"7 7 7 z F H F z z z z l 3 3 3 3 N i.a.a.a.i.*.=.*.o.g z g %       % z N g o.=.-.i.a.a.a.a.t.N z z n %.%.z n F G G G G G H F z z ",
"7 7 7 z F H F z z z z z g 3 3 3 g q.i.a.a.i.-.*.=.*.%.( g 4 o   X 3 g o.%.*.=.-.a.a.a.u.w.N z o.%.$.-.o.g v F G G G G G H F z z ",
"7 7 7 z F G G A z z z z z z g 3 3 g N t.a.a.a.i.-.=.-.=.%.O.g 3 j $.%.&.*.=.*.i.a.a.t.N z g n %.-.&.O.n v n F G G G G G H F z z ",
"7 7 7 z F G G F z z z z z z z g 3 3 3 N t.a.a.a.i.-.=.=.*.*.%.%.%.&.-.=.-.=.-.a.a.t.N g l n $.=.&.%.n j n F G G G H H H H F z z ",
"7 7 7 z A G G F z z z z z z z z z 3 g g t.a.a.a.a.-.=.=.=.=.*.*.*.=.=.-.t.;.t.a.u.N g z z o.-.=.&.o.z z n F G G G H G H H F z z ",
"7 7 7 h z F H F z z z z z z z N o.g 0 J i.a.a.a.i.-.*.=.=.=.=.=.=.=.*.-.a.a.a.a.q.z z z n %.&.&.%.n z n n F G G G G G F H F z z ",
"7 7 7 7 z F G G F z z z z n o.%.=.J J ( t.a.a.a.i.-.t.-.=.=.=.=.*.-.i.i.a.a.i.w.N z z z o.&.=.&.o.z z n n F G G G G G G H F z z ",
"7 7 7 7 z F H G G F z z z o.-.&.=.=.%.( ( =.i.a.i.;.i.i.-.*.=.-.i.a.a.a.a.t.N z z z g z %.&.&.%.n z v n F G G G G G G G H F z z ",
"7 7 7 7 7 F G G G H F z z =.&.=.=.=.=.%./ ( -.i.i.i.a.a.a.i.;.i.a.a.a.a.t.N g g z z z z $.&.-.$.z 3 n F G G G G G G G G H F z z ",
"7 7 7 7 7 b F H G G F z z o.&.=.=.=.=.=.%.%.=.&.-.i.a.a.a.a.i.a.a.a.a.a.t.z z z z N o.B $.-.o.n g 0 A H G G G G G G G G H F z z ",
"7 7 7 7 7 7 F H G G G F z n $.&.=.=.=.=.=.&.=.%.&.i.a.a.a.a.a.a.a.a.a.a.t.z z o.%.$.=.$.&.$.n k z n F G G G G G G G G G H F z z "
};
